<svg id="visual" viewBox="0 0 900 600" width="900" height="600" xmlns="http://www.w3.org/2000/svg" xmlns:xlink="http://www.w3.org/1999/xlink" version="1.1"><path d="M0 493L16.7 491C33.3 489 66.7 485 100 486.3C133.3 487.7 166.7 494.3 200 493.7C233.3 493 266.7 485 300 467.5C333.3 450 366.7 423 400 419.5C433.3 416 466.7 436 500 441C533.3 446 566.7 436 600 426.2C633.3 416.3 666.7 406.7 700 411.5C733.3 416.3 766.7 435.7 800 444.8C833.3 454 866.7 453 883.3 452.5L900 452" fill="none" stroke-linecap="round" stroke-linejoin="miter" stroke="#0066FF" stroke-width="6"></path></svg>